<?xml version="1.0" encoding="UTF-8"?>
<!--
    SPDX-FileCopyrightText: 2025 thenameisluk
    SPDX-FileCopyrightText: 2025 Aleksandr Mezin <mezin.alexander@gmail.com>
    SPDX-License-Identifier: CC0-1.0
-->
<svg height="16px" viewBox="0 0 16 16" width="16px" xmlns="http://www.w3.org/2000/svg">
    <path d="m 4 7 c -0.265625 0 -0.519531 0.105469 -0.707031 0.292969 c -0.390625 0.390625 -0.390625 1.023437 0 1.414062 l 1.292969 1.292969 l -1.292969 1.292969 c -0.390625 0.390625 -0.390625 1.023437 0 1.414062 s 1.023437 0.390625 1.414062 0 l 2 -2 c 0.390625 -0.390625 0.390625 -1.023437 0 -1.414062 l -2 -2 c -0.1875 -0.1875 -0.441406 -0.292969 -0.707031 -0.292969 z m 0 0"/>
    <path d="m 8 11 c -0.550781 0 -1 0.449219 -1 1 s 0.449219 1 1 1 h 2 c 0.550781 0 1 -0.449219 1 -1 s -0.449219 -1 -1 -1 z m 0 0"/>
    <path d="m 1 0 c -0.550781 0 -1 0.449219 -1 1 v 12 c 0 0.832031 0.386719 1.550781 0.917969 2.082031 s 1.25 0.917969 2.082031 0.917969 h 10 c 0.832031 0 1.550781 -0.386719 2.082031 -0.917969 s 0.917969 -1.25 0.917969 -2.082031 v -12 c 0 -0.550781 -0.449219 -1 -1 -1 s -1 0.449219 -1 1 v 12 c 0 0.167969 -0.113281 0.449219 -0.332031 0.667969 s -0.5 0.332031 -0.667969 0.332031 h -10 c -0.167969 0 -0.449219 -0.113281 -0.667969 -0.332031 s -0.332031 -0.5 -0.332031 -0.667969 v -12 c 0 -0.550781 -0.449219 -1 -1 -1 z m 0 0"/>
</svg>
