<?xml version="1.0" encoding="UTF-8"?>
<!--
    SPDX-FileCopyrightText: 2025 thenameisluk
    SPDX-FileCopyrightText: 2025 Aleksandr Mezin <mezin.alexander@gmail.com>
    SPDX-License-Identifier: CC0-1.0
-->
<svg height="16px" viewBox="0 0 16 16" width="16px" xmlns="http://www.w3.org/2000/svg">
    <g fill="#222222">
        <path d="m 14 1 v 13 h -12 v -13 c 0 -0.691406 -0.5 -1 -1 -1 c -0.5 0.00390625 -1 0.3125 -1 1 v 13 c 0 1.121094 0.894531 2 2 2 h 12 c 1.105469 0 2 -0.878906 2 -2 v -13 c 0 -0.683594 -0.5 -1 -1 -1 s -1 0.316406 -1 1 z m 0 0"/>
        <path d="m 4.738281 7.324219 l 1.945313 1.996093 c 0.390625 0.402344 0.386718 1.039063 -0.007813 1.421876 c -0.394531 0.382812 -1.027343 0.371093 -1.417969 -0.03125 l -1.945312 -1.992188 c -0.390625 -0.402344 -0.386719 -1.039062 0.007812 -1.421875 c 0.394532 -0.382813 1.03125 -0.371094 1.417969 0.027344 z m 0 0"/>
        <path d="m 6.667969 10.742188 l -1.980469 1.957031 c -0.398438 0.394531 -1.035156 0.394531 -1.421875 0.003906 s -0.378906 -1.027344 0.019531 -1.421875 l 1.984375 -1.957031 c 0.394531 -0.394531 1.03125 -0.394531 1.417969 -0.003907 c 0.386719 0.394532 0.378906 1.027344 -0.019531 1.421876 z m 0 0"/>
        <path d="m 9.917969 12.984375 l -1.933594 -0.003906 c -0.558594 -0.003907 -1.011719 -0.441407 -1.011719 -0.984375 v -0.003906 c 0.003906 -0.542969 0.457032 -0.980469 1.015625 -0.980469 l 1.933594 0.003906 c 0.558594 0 1.011719 0.441406 1.011719 0.984375 v 0.003906 c 0 0.542969 -0.457032 0.980469 -1.015625 0.980469 z m 0 0"/>
    </g>
    <path d="m -160 -172 l 174.011719 175.949219" fill="#f8e45c"/>
    <path d="m -284.105959 235.396083 l 0.097656 35.17 z m 0 0" fill="none" stroke="#2ec27e" stroke-linecap="square" stroke-miterlimit="32.700001" stroke-width="3.80626" transform="matrix(1 0 0 0.910533 186.055178 -142.40616)"/>
    <path d="m -99.085938 101.460938 c -3.734375 0.6875 -7.472656 1.375 -9.316406 -1.375 c -1.839844 -2.753907 -1.789062 -8.945313 0.164063 -11.632813 c 1.957031 -2.691406 5.820312 -1.878906 9.683593 -1.066406" fill="none" stroke="#2ec27e" stroke-linecap="square" stroke-miterlimit="32.700001" stroke-width="3.632"/>
    <path d="m -284.106127 235.393352 l 0.097656 35.17429 z m 0 0" fill="none" stroke="#2ec27e" stroke-linecap="square" stroke-miterlimit="32.700001" stroke-width="3.80626" transform="matrix(1 0 0 0.910533 205.879565 -142.434924)"/>
    <path d="m -79.3125 101.484375 c -3.71875 0.671875 -7.4375 1.339844 -9.273437 -1.417969 c -1.832032 -2.761718 -1.78125 -8.953125 0.210937 -11.679687 c 1.992188 -2.722656 5.925781 -1.984375 9.859375 -1.242188" fill="none" stroke="#2ec27e" stroke-linecap="square" stroke-miterlimit="32.700001" stroke-width="3.632"/>
</svg>
