<?xml version="1.0" encoding="UTF-8"?>
<!--
    SPDX-FileCopyrightText: 2025 thenameisluk
    SPDX-License-Identifier: CC0-1.0
-->
<svg height="128px" viewBox="0 0 128 128" width="128px" xmlns="http://www.w3.org/2000/svg" xmlns:xlink="http://www.w3.org/1999/xlink">
    <linearGradient id="a" gradientTransform="matrix(0.244804 0 0 0.103187 -13.549061 89.955579)" gradientUnits="userSpaceOnUse" x1="103.871758" x2="529.153809" y1="-446.606262" y2="-446.606262">
        <stop offset="0" stop-color="#241f31"/>
        <stop offset="0.0384615" stop-color="#3d3846"/>
        <stop offset="0.0768555" stop-color="#241f31"/>
        <stop offset="0.923077" stop-color="#241f31"/>
        <stop offset="0.961538" stop-color="#3d3846"/>
        <stop offset="1" stop-color="#241f31"/>
    </linearGradient>
    <linearGradient id="b" gradientTransform="matrix(0.180337 0 0 0.216495 7.445435 217.072501)" gradientUnits="userSpaceOnUse" x1="69.610558" x2="557.627747" y1="-448.109894" y2="-448.132202">
        <stop offset="0" stop-color="#77767b"/>
        <stop offset="0.0370692" stop-color="#c0bfbc"/>
        <stop offset="0.0768555" stop-color="#9a9996"/>
        <stop offset="0.923077" stop-color="#9a9996"/>
        <stop offset="0.961538" stop-color="#c0bfbc"/>
        <stop offset="1" stop-color="#77767b"/>
    </linearGradient>
    <linearGradient id="c" gradientTransform="matrix(0.921565 0 0 1.12627 5.087115 -207.910194)" gradientUnits="userSpaceOnUse" x1="63.747917" x2="63.747917" y1="293.890533" y2="213.570755">
        <stop offset="0.0896232" stop-color="#3d3846"/>
        <stop offset="0.225048" stop-color="#241f31"/>
        <stop offset="0.749902" stop-color="#241f31"/>
        <stop offset="0.890995" stop-color="#3d3846"/>
    </linearGradient>
    <path d="m 20.390625 12.039062 h 87.472656 c 4.574219 0 8.28125 2.671876 8.28125 5.972657 v 19.875 c 0 3.296875 -3.707031 5.972656 -8.28125 5.972656 h -87.472656 c -4.574219 0 -8.28125 -2.675781 -8.28125 -5.972656 v -19.875 c 0 -3.300781 3.707031 -5.972657 8.28125 -5.972657 z m 0 0" fill="url(#a)"/>
    <path d="m 20.386719 12.050781 h 87.277343 c 4.628907 0 8.382813 2.632813 8.382813 5.882813 v 12.136718 c 0 3.246094 -3.753906 5.878907 -8.382813 5.878907 h -87.277343 c -4.628907 0 -8.382813 -2.632813 -8.382813 -5.878907 v -12.136718 c 0 -3.25 3.753906 -5.882813 8.382813 -5.882813 z m 0 0" fill="#5e5c64"/>
    <path d="m 23.957031 20.035156 h 15.683594 c 2.164063 0 3.921875 1.722656 3.921875 3.847656 v 0.285157 c 0 2.125 -1.757812 3.847656 -3.921875 3.847656 h -15.683594 c -2.167969 0 -3.925781 -1.722656 -3.925781 -3.847656 v -0.285157 c 0 -2.125 1.757812 -3.847656 3.925781 -3.847656 z m 0 0" fill="#f6f5f4"/>
    <path d="m 51.980469 20.867188 c 1.675781 0 3.03125 1.363281 3.03125 3.046874 c 0 1.683594 -1.355469 3.046876 -3.03125 3.046876 s -3.03125 -1.363282 -3.03125 -3.046876 c 0 -1.683593 1.355469 -3.046874 3.03125 -3.046874 z m 0 0" fill="#deddda"/>
    <path d="m 27.300781 56.101562 h 73.292969 c 4.082031 0 7.394531 3.578126 7.394531 7.992188 v 47.972656 c 0 4.414063 -3.3125 7.992188 -7.394531 7.992188 h -73.292969 c -4.085937 0 -7.394531 -3.578125 -7.394531 -7.992188 v -47.972656 c 0 -4.414062 3.308594 -7.992188 7.394531 -7.992188 z m 0 0" fill="url(#b)"/>
    <path d="m 28.046875 52.058594 h 71.953125 c 4.4375 0 8.039062 3.625 8.039062 8.097656 v 47.773438 c 0 4.472656 -3.601562 8.097656 -8.039062 8.097656 h -71.953125 c -4.441406 0 -8.039063 -3.625 -8.039063 -8.097656 v -47.773438 c 0 -4.472656 3.597657 -8.097656 8.039063 -8.097656 z m 0 0" fill="#deddda"/>
    <path d="m 19.949219 39.945312 h 88.066406 v 32.054688 h -88.066406 z m 0 0" fill="#deddda"/>
    <path d="m 29.695312 43.914062 h 68.644532 c 3.144531 0 5.691406 2.429688 5.691406 5.429688 v 57.25 c 0 3 -2.546875 5.433594 -5.691406 5.433594 h -68.644532 c -3.144531 0 -5.695312 -2.433594 -5.695312 -5.433594 v -57.25 c 0 -3 2.550781 -5.429688 5.695312 -5.429688 z m 0 0" fill="url(#c)"/>
    <path d="m 34.804688 82.605469 l 5.664062 6.476562 l -5.375 6.355469" fill="none" stroke="#2ec27e" stroke-linecap="round" stroke-linejoin="round" stroke-width="5.37384"/>
    <path d="m 0 -172 l 174.011719 175.949219" fill="#f8e45c"/>
    <g stroke="#2ec27e" stroke-linecap="square" stroke-miterlimit="32.700001">
        <path d="m -284.105959 235.396083 l 0.097656 35.17 z m 0 0" fill="#2ec27e" stroke-width="3.80626" transform="matrix(1 0 0 0.910533 346.055178 -142.40616)"/>
        <path d="m 60.914062 101.460938 c -3.734375 0.6875 -7.472656 1.375 -9.316406 -1.375 c -1.839844 -2.753907 -1.789062 -8.945313 0.164063 -11.632813 c 1.957031 -2.691406 5.820312 -1.878906 9.683593 -1.066406" fill="none" stroke-width="3.632"/>
        <path d="m -284.106127 235.393352 l 0.097656 35.17429 z m 0 0" fill="#2ec27e" stroke-width="3.80626" transform="matrix(1 0 0 0.910533 365.879565 -142.434924)"/>
        <path d="m 80.6875 101.484375 c -3.71875 0.671875 -7.4375 1.339844 -9.273437 -1.417969 c -1.832032 -2.761718 -1.78125 -8.953125 0.210937 -11.679687 c 1.992188 -2.722656 5.925781 -1.984375 9.859375 -1.242188" fill="none" stroke-width="3.632"/>
    </g>
</svg>
