<?xml version="1.0" encoding="UTF-8"?>
<!--
    SPDX-FileCopyrightText: 2025 thenameisluk
    SPDX-FileCopyrightText: 2025 Aleksandr Mezin <mezin.alexander@gmail.com>
    SPDX-License-Identifier: CC0-1.0
-->
<svg height="16px" viewBox="0 0 16 16" width="16px" xmlns="http://www.w3.org/2000/svg">
    <path d="m 14 1 v 13 h -12 v -13 c 0 -0.691406 -0.5 -1 -1 -1 c -0.5 0.00390625 -1 0.3125 -1 1 v 13 c 0 1.121094 0.894531 2 2 2 h 12 c 1.105469 0 2 -0.878906 2 -2 v -13 c 0 -0.683594 -0.5 -1 -1 -1 s -1 0.316406 -1 1 z m 0 0" fill="#222222"/>
    <path d="m 4.03125 7.015625 c -0.257812 -0.003906 -0.511719 0.089844 -0.710938 0.28125 c -0.394531 0.386719 -0.398437 1.019531 -0.007812 1.417969 l 1.261719 1.292968 l -1.289063 1.273438 c -0.398437 0.394531 -0.40625 1.027344 -0.019531 1.421875 s 1.023437 0.390625 1.421875 -0.003906 l 1.914062 -1.890625 l 0.003907 -0.003906 c 0.023437 -0.019532 0.046875 -0.039063 0.070312 -0.0625 c 0.195313 -0.191407 0.296875 -0.445313 0.300781 -0.699219 c 0 -0.035157 -0.003906 -0.074219 -0.003906 -0.109375 c -0.019531 -0.222656 -0.113281 -0.441406 -0.28125 -0.613282 c -0.019531 -0.015624 -0.039062 -0.03125 -0.054687 -0.050781 c -0.003907 0 -0.003907 0 -0.003907 0 l -1.890624 -1.945312 c -0.199219 -0.199219 -0.453126 -0.304688 -0.710938 -0.308594 z m 0 0" fill="#222222"/>
    <path d="m 9.917969 12.984375 l -1.933594 -0.003906 c -0.558594 -0.003907 -1.011719 -0.441407 -1.011719 -0.984375 v -0.003906 c 0.003906 -0.542969 0.457032 -0.980469 1.015625 -0.980469 l 1.933594 0.003906 c 0.558594 0 1.011719 0.441406 1.011719 0.984375 v 0.003906 c 0 0.542969 -0.457032 0.980469 -1.015625 0.980469 z m 0 0" fill="#222222"/>
</svg>
