<?xml version="1.0" encoding="UTF-8"?>
<!--
    SPDX-FileCopyrightText: 2025 Aleksandr Mezin <mezin.alexander@gmail.com>
    SPDX-License-Identifier: CC0-1.0
-->
<svg version="1.1" height="16" width="16" xmlns="http://www.w3.org/2000/svg" xmlns:svg="http://www.w3.org/2000/svg">
    <path d="M 0,1 V 12.78125 C 0,13.98328 0.98197,15 2.1875,15 h 11.625 C 15.01803,15 16,13.98329 16,12.78125 V 1 H 14 V 12.78125 C 14,12.91909 13.9353,13 13.8125,13 H 2.1875 C 2.06469,13 2,12.9191 2,12.78125 V 1 Z" />
    <path d="M 8.5,5 C 8.223,5 8,5.223 8,5.5 V 8 H 6.5 C 6.223,8 6,8.223 6,8.5 v 3 C 6,11.777 6.223,12 6.5,12 h 2 c 0.0173,0 0.0339,-2.5e-4 0.0508,-0.002 0.25274,-0.0255 0.44922,-0.23831 0.44922,-0.498 v -6 c 0,-0.277 -0.223,-0.5 -0.5,-0.5 z M 7,9 h 1 v 2 H 7 Z" />
    <path d="M 12.5,5 C 12.223,5 12,5.223 12,5.5 V 8 H 10.5 C 10.223,8 10,8.223 10,8.5 v 3 c 0,0.277 0.223,0.5 0.5,0.5 h 2 c 0.0173,0 0.0339,-2.5e-4 0.0508,-0.002 0.25274,-0.0255 0.44922,-0.23831 0.44922,-0.498 v -6 c 0,-0.277 -0.223,-0.5 -0.5,-0.5 z M 11,9 h 1 v 2 h -1 z" />
    <path d="m 3.26757,6.5 c -0.1323,0 -0.26385,0.051 -0.36523,0.15235 -0.20274,0.20274 -0.20275,0.52966 0,0.73242 L 4.01758,8.5 2.90234,9.61524 c -0.20274,0.20275 -0.20275,0.52966 0,0.73242 0.20275,0.20275 0.52968,0.20275 0.73243,0 L 5.09766,8.88477 C 5.20372,8.77871 5.2549,8.63834 5.25,8.49999 5.255,8.36185 5.2036,8.22114 5.09766,8.11524 L 3.63477,6.65235 C 3.53339,6.55097 3.39988,6.49999 3.26757,6.5 Z" />
</svg>
